<?xml version="1.0" encoding="UTF-8"?><svg xmlns="http://www.w3.org/2000/svg" xmlns:xlink="http://www.w3.org/1999/xlink" fill-opacity="1" color-rendering="auto" color-interpolation="auto" text-rendering="auto" stroke="black" stroke-linecap="square" width="1176" stroke-miterlimit="10" shape-rendering="auto" stroke-opacity="1" fill="black" stroke-dasharray="none" font-weight="normal" stroke-width="1" height="1081" font-family="'Dialog'" font-style="normal" stroke-linejoin="miter" font-size="12px" stroke-dashoffset="0" image-rendering="auto">
  <!--Generated by ySVG 2.6-->
  <defs id="genericDefs"/>
  <g>
    <defs id="defs1">
      <clipPath clipPathUnits="userSpaceOnUse" id="clipPath1">
        <path d="M0 0 L1176 0 L1176 1081 L0 1081 L0 0 Z"/>
      </clipPath>
      <clipPath clipPathUnits="userSpaceOnUse" id="clipPath2">
        <path d="M0 0 L0 18 L33 18 L33 0 Z"/>
      </clipPath>
      <script type="text/ecmascript"><![CDATA[      var SVGDocument = null;
      var SVGRoot = null;
      var TrueCoords = null;
      var lastElement = null;
      var initialized = null;
      var tipGroup;
      function Init(evt)
      {
         SVGDocument = evt.target.ownerDocument;
         SVGRoot = SVGDocument.documentElement;
         TrueCoords = SVGRoot.createSVGPoint();
         initialized = evt;
      };
      function GetTrueCoords(evt)
      {
         var newScale = SVGRoot.currentScale;
         var translation = SVGRoot.currentTranslate;
         TrueCoords.x = (evt.clientX - translation.x)/newScale;
         TrueCoords.y = (evt.clientY - translation.y)/newScale;
      };
      function HideTooltip( evt )
      {
         if(initialized == null) {
           Init(evt);
         }
         if(tipGroup != null) {
           tipGroup.setAttributeNS(null, 'visibility', 'hidden');
         }
      };
      function ShowTooltip( evt )
      {
         if(initialized == null) {
           Init(evt);
         }
         GetTrueCoords( evt );
         var tipScale = 1/SVGRoot.currentScale;
         var targetElement = evt.currentTarget;
         if ( lastElement != targetElement )
         {
            var targetId = targetElement.getAttributeNS(null, 'id');
            var tipId = 'tooltip.' + targetId;
            tipGroup = SVGDocument.getElementById(tipId);
            var xPos = TrueCoords.x + (10 * tipScale);
            var yPos = TrueCoords.y + (10 * tipScale);
            tipGroup.setAttributeNS(null, 'transform', 'translate(' + xPos + ',' + yPos + ') scale(' + tipScale + ')');
            tipGroup.setAttributeNS(null, 'visibility', 'visible');
         }
      };
]]></script>
    </defs>
    <g id="y.node.3">
      <g fill="rgb(153,204,255)" text-rendering="geometricPrecision" shape-rendering="geometricPrecision" transform="matrix(1.1545,0,0,1.1545,-4001.3933,278.2273)" stroke="rgb(153,204,255)">
        <rect x="3496.3351" width="341.0649" height="254.1418" y="104.3438" stroke="none"/>
      </g>
      <g text-rendering="geometricPrecision" stroke-miterlimit="1.45" shape-rendering="geometricPrecision" transform="matrix(1.1545,0,0,1.1545,-4001.3933,278.2273)" stroke-linecap="butt">
        <rect fill="none" x="3496.3351" width="341.0649" height="254.1418" y="104.3438"/>
      </g>
      <g>
        <g font-size="24px" stroke-linecap="butt" transform="matrix(1.1545,0,0,1.1545,-4001.3933,278.2273)" text-rendering="geometricPrecision" font-family="sans-serif" shape-rendering="geometricPrecision" stroke-miterlimit="1.45">
          <text x="3650.1978" xml:space="preserve" y="137.7509" stroke="none">PC</text>
        </g>
      </g>
    </g>
    <g id="y.node.27">
      <g fill="rgb(153,204,255)" text-rendering="geometricPrecision" shape-rendering="geometricPrecision" transform="matrix(1.1545,0,0,1.1545,-4001.3933,278.2273)" stroke="rgb(153,204,255)">
        <rect x="3917.5" width="522" height="870.2034" y="-211.6562" stroke="none"/>
      </g>
      <g text-rendering="geometricPrecision" stroke-miterlimit="1.45" shape-rendering="geometricPrecision" transform="matrix(1.1545,0,0,1.1545,-4001.3933,278.2273)" stroke-linecap="butt">
        <rect fill="none" x="3917.5" width="522" height="870.2034" y="-211.6562"/>
      </g>
      <g>
        <g font-size="24px" stroke-linecap="butt" transform="matrix(1.1545,0,0,1.1545,-4001.3933,278.2273)" text-rendering="geometricPrecision" font-family="sans-serif" shape-rendering="geometricPrecision" stroke-miterlimit="1.45">
          <text x="4159.8262" xml:space="preserve" y="-160.6062" stroke="none">Hat</text>
        </g>
      </g>
    </g>
    <g id="y.node.28">
      <g fill="rgb(255,204,0)" text-rendering="geometricPrecision" shape-rendering="geometricPrecision" transform="matrix(1.1545,0,0,1.1545,-4001.3933,278.2273)" stroke="rgb(255,204,0)">
        <rect x="3685.9329" y="162.5298" width="111.8658" rx="4" ry="4" height="159.9405" stroke="none"/>
      </g>
      <g text-rendering="geometricPrecision" stroke-miterlimit="1.45" shape-rendering="geometricPrecision" transform="matrix(1.1545,0,0,1.1545,-4001.3933,278.2273)" stroke-linecap="butt">
        <rect x="3685.9329" y="162.5298" fill="none" width="111.8658" rx="4" ry="4" height="159.9405"/>
      </g>
      <g>
        <g text-rendering="geometricPrecision" stroke-miterlimit="1.45" shape-rendering="geometricPrecision" font-family="sans-serif" transform="matrix(1.1545,0,0,1.1545,-4001.3933,278.2273)" stroke-linecap="butt">
          <text x="3701.5093" xml:space="preserve" y="247.2139" stroke="none">CLI Application</text>
        </g>
      </g>
    </g>
    <g id="y.node.29">
      <g fill="rgb(255,204,0)" text-rendering="geometricPrecision" shape-rendering="geometricPrecision" transform="matrix(1.1545,0,0,1.1545,-4001.3933,278.2273)" stroke="rgb(255,204,0)">
        <rect x="3722.6" y="-125" width="114.8" rx="4" ry="4" height="70" stroke="none"/>
      </g>
      <g text-rendering="geometricPrecision" stroke-miterlimit="1.45" shape-rendering="geometricPrecision" transform="matrix(1.1545,0,0,1.1545,-4001.3933,278.2273)" stroke-linecap="butt">
        <rect x="3722.6" y="-125" fill="none" width="114.8" rx="4" ry="4" height="70"/>
      </g>
      <g>
        <g text-rendering="geometricPrecision" stroke-miterlimit="1.45" shape-rendering="geometricPrecision" font-family="sans-serif" transform="matrix(1.1545,0,0,1.1545,-4001.3933,278.2273)" stroke-linecap="butt">
          <text x="3742.3154" xml:space="preserve" y="-85.2861" stroke="none">Power Source</text>
        </g>
      </g>
    </g>
    <g id="y.node.30">
      <g fill="rgb(255,204,0)" text-rendering="geometricPrecision" shape-rendering="geometricPrecision" transform="matrix(1.1545,0,0,1.1545,-4001.3933,278.2273)" stroke="rgb(255,204,0)">
        <rect x="3980" y="-125" width="150" rx="4" ry="4" height="70" stroke="none"/>
      </g>
      <g text-rendering="geometricPrecision" stroke-miterlimit="1.45" shape-rendering="geometricPrecision" transform="matrix(1.1545,0,0,1.1545,-4001.3933,278.2273)" stroke-linecap="butt">
        <rect x="3980" y="-125" fill="none" width="150" rx="4" ry="4" height="70"/>
      </g>
      <g>
        <g text-rendering="geometricPrecision" stroke-miterlimit="1.45" shape-rendering="geometricPrecision" font-family="sans-serif" transform="matrix(1.1545,0,0,1.1545,-4001.3933,278.2273)" stroke-linecap="butt">
          <text x="4001.3047" xml:space="preserve" y="-85.2861" stroke="none">Power Management</text>
        </g>
      </g>
    </g>
    <g id="y.node.31">
      <g fill="rgb(255,204,0)" text-rendering="geometricPrecision" shape-rendering="geometricPrecision" transform="matrix(1.1545,0,0,1.1545,-4001.3933,278.2273)" stroke="rgb(255,204,0)">
        <rect x="3980" y="0" width="150" rx="4" ry="4" height="485" stroke="none"/>
      </g>
      <g text-rendering="geometricPrecision" stroke-miterlimit="1.45" shape-rendering="geometricPrecision" transform="matrix(1.1545,0,0,1.1545,-4001.3933,278.2273)" stroke-linecap="butt">
        <rect x="3980" y="0" fill="none" width="150" rx="4" ry="4" height="485"/>
      </g>
      <g>
        <g text-rendering="geometricPrecision" stroke-miterlimit="1.45" shape-rendering="geometricPrecision" font-family="sans-serif" transform="matrix(1.1545,0,0,1.1545,-4001.3933,278.2273)" stroke-linecap="butt">
          <text x="4047.21" xml:space="preserve" y="232.5127" stroke="none">µC</text>
          <text x="3997.6396" xml:space="preserve" y="247.2139" stroke="none">STM32 Nucleo Board</text>
          <text x="4028.9932" xml:space="preserve" y="261.915" stroke="none">(F411RE)</text>
        </g>
      </g>
    </g>
    <g id="y.node.32">
      <g fill="rgb(255,153,0)" text-rendering="geometricPrecision" shape-rendering="geometricPrecision" transform="matrix(1.1545,0,0,1.1545,-4001.3933,278.2273)" stroke="rgb(255,153,0)">
        <rect x="4189.1558" y="10" width="141.6884" rx="4" ry="4" height="40" stroke="none"/>
      </g>
      <g text-rendering="geometricPrecision" stroke-miterlimit="1.45" shape-rendering="geometricPrecision" transform="matrix(1.1545,0,0,1.1545,-4001.3933,278.2273)" stroke-linecap="butt">
        <rect x="4189.1558" y="10" fill="none" width="141.6884" rx="4" ry="4" height="40"/>
      </g>
      <g>
        <g text-rendering="geometricPrecision" stroke-miterlimit="1.45" shape-rendering="geometricPrecision" font-family="sans-serif" transform="matrix(1.1545,0,0,1.1545,-4001.3933,278.2273)" stroke-linecap="butt">
          <text x="4203.3047" xml:space="preserve" y="34.7139" stroke="none">Testsetup Single Cell</text>
        </g>
      </g>
    </g>
    <g id="y.node.33">
      <g fill="rgb(255,153,0)" text-rendering="geometricPrecision" shape-rendering="geometricPrecision" transform="matrix(1.1545,0,0,1.1545,-4001.3933,278.2273)" stroke="rgb(255,153,0)">
        <rect x="4189.1558" y="70" width="141.6884" rx="4" ry="4" height="40" stroke="none"/>
      </g>
      <g text-rendering="geometricPrecision" stroke-miterlimit="1.45" shape-rendering="geometricPrecision" transform="matrix(1.1545,0,0,1.1545,-4001.3933,278.2273)" stroke-linecap="butt">
        <rect x="4189.1558" y="70" fill="none" width="141.6884" rx="4" ry="4" height="40"/>
      </g>
      <g>
        <g text-rendering="geometricPrecision" stroke-miterlimit="1.45" shape-rendering="geometricPrecision" font-family="sans-serif" transform="matrix(1.1545,0,0,1.1545,-4001.3933,278.2273)" stroke-linecap="butt">
          <text x="4203.3047" xml:space="preserve" y="94.7139" stroke="none">Testsetup Single Cell</text>
        </g>
      </g>
    </g>
    <g id="y.node.34">
      <g fill="rgb(255,153,0)" text-rendering="geometricPrecision" shape-rendering="geometricPrecision" transform="matrix(1.1545,0,0,1.1545,-4001.3933,278.2273)" stroke="rgb(255,153,0)">
        <rect x="4189.1558" y="130" width="141.6884" rx="4" ry="4" height="40" stroke="none"/>
      </g>
      <g text-rendering="geometricPrecision" stroke-miterlimit="1.45" shape-rendering="geometricPrecision" transform="matrix(1.1545,0,0,1.1545,-4001.3933,278.2273)" stroke-linecap="butt">
        <rect x="4189.1558" y="130" fill="none" width="141.6884" rx="4" ry="4" height="40"/>
      </g>
      <g>
        <g text-rendering="geometricPrecision" stroke-miterlimit="1.45" shape-rendering="geometricPrecision" font-family="sans-serif" transform="matrix(1.1545,0,0,1.1545,-4001.3933,278.2273)" stroke-linecap="butt">
          <text x="4203.3047" xml:space="preserve" y="154.7139" stroke="none">Testsetup Single Cell</text>
        </g>
      </g>
    </g>
    <g id="y.node.35">
      <g fill="rgb(255,153,0)" text-rendering="geometricPrecision" shape-rendering="geometricPrecision" transform="matrix(1.1545,0,0,1.1545,-4001.3933,278.2273)" stroke="rgb(255,153,0)">
        <rect x="4189.1558" y="190" width="141.6884" rx="4" ry="4" height="40" stroke="none"/>
      </g>
      <g text-rendering="geometricPrecision" stroke-miterlimit="1.45" shape-rendering="geometricPrecision" transform="matrix(1.1545,0,0,1.1545,-4001.3933,278.2273)" stroke-linecap="butt">
        <rect x="4189.1558" y="190" fill="none" width="141.6884" rx="4" ry="4" height="40"/>
      </g>
      <g>
        <g text-rendering="geometricPrecision" stroke-miterlimit="1.45" shape-rendering="geometricPrecision" font-family="sans-serif" transform="matrix(1.1545,0,0,1.1545,-4001.3933,278.2273)" stroke-linecap="butt">
          <text x="4203.3047" xml:space="preserve" y="214.7139" stroke="none">Testsetup Single Cell</text>
        </g>
      </g>
    </g>
    <g id="y.node.36">
      <g fill="rgb(255,153,0)" text-rendering="geometricPrecision" shape-rendering="geometricPrecision" transform="matrix(1.1545,0,0,1.1545,-4001.3933,278.2273)" stroke="rgb(255,153,0)">
        <rect x="4189.1558" y="250" width="141.6884" rx="4" ry="4" height="40" stroke="none"/>
      </g>
      <g text-rendering="geometricPrecision" stroke-miterlimit="1.45" shape-rendering="geometricPrecision" transform="matrix(1.1545,0,0,1.1545,-4001.3933,278.2273)" stroke-linecap="butt">
        <rect x="4189.1558" y="250" fill="none" width="141.6884" rx="4" ry="4" height="40"/>
      </g>
      <g>
        <g text-rendering="geometricPrecision" stroke-miterlimit="1.45" shape-rendering="geometricPrecision" font-family="sans-serif" transform="matrix(1.1545,0,0,1.1545,-4001.3933,278.2273)" stroke-linecap="butt">
          <text x="4203.3047" xml:space="preserve" y="274.7139" stroke="none">Testsetup Single Cell</text>
        </g>
      </g>
    </g>
    <g id="y.node.37">
      <g fill="rgb(255,153,0)" text-rendering="geometricPrecision" shape-rendering="geometricPrecision" transform="matrix(1.1545,0,0,1.1545,-4001.3933,278.2273)" stroke="rgb(255,153,0)">
        <rect x="4189.1558" y="310" width="141.6884" rx="4" ry="4" height="40" stroke="none"/>
      </g>
      <g text-rendering="geometricPrecision" stroke-miterlimit="1.45" shape-rendering="geometricPrecision" transform="matrix(1.1545,0,0,1.1545,-4001.3933,278.2273)" stroke-linecap="butt">
        <rect x="4189.1558" y="310" fill="none" width="141.6884" rx="4" ry="4" height="40"/>
      </g>
      <g>
        <g text-rendering="geometricPrecision" stroke-miterlimit="1.45" shape-rendering="geometricPrecision" font-family="sans-serif" transform="matrix(1.1545,0,0,1.1545,-4001.3933,278.2273)" stroke-linecap="butt">
          <text x="4203.3047" xml:space="preserve" y="334.7139" stroke="none">Testsetup Single Cell</text>
        </g>
      </g>
    </g>
    <g id="y.node.38">
      <g fill="rgb(255,153,0)" text-rendering="geometricPrecision" shape-rendering="geometricPrecision" transform="matrix(1.1545,0,0,1.1545,-4001.3933,278.2273)" stroke="rgb(255,153,0)">
        <rect x="4189.1558" y="370" width="141.6884" rx="4" ry="4" height="40" stroke="none"/>
      </g>
      <g text-rendering="geometricPrecision" stroke-miterlimit="1.45" shape-rendering="geometricPrecision" transform="matrix(1.1545,0,0,1.1545,-4001.3933,278.2273)" stroke-linecap="butt">
        <rect x="4189.1558" y="370" fill="none" width="141.6884" rx="4" ry="4" height="40"/>
      </g>
      <g>
        <g text-rendering="geometricPrecision" stroke-miterlimit="1.45" shape-rendering="geometricPrecision" font-family="sans-serif" transform="matrix(1.1545,0,0,1.1545,-4001.3933,278.2273)" stroke-linecap="butt">
          <text x="4203.3047" xml:space="preserve" y="394.7139" stroke="none">Testsetup Single Cell</text>
        </g>
      </g>
    </g>
    <g id="y.node.39">
      <g fill="rgb(255,153,0)" text-rendering="geometricPrecision" shape-rendering="geometricPrecision" transform="matrix(1.1545,0,0,1.1545,-4001.3933,278.2273)" stroke="rgb(255,153,0)">
        <rect x="4189.1558" y="430" width="141.6884" rx="4" ry="4" height="40" stroke="none"/>
      </g>
      <g text-rendering="geometricPrecision" stroke-miterlimit="1.45" shape-rendering="geometricPrecision" transform="matrix(1.1545,0,0,1.1545,-4001.3933,278.2273)" stroke-linecap="butt">
        <rect x="4189.1558" y="430" fill="none" width="141.6884" rx="4" ry="4" height="40"/>
      </g>
      <g>
        <g text-rendering="geometricPrecision" stroke-miterlimit="1.45" shape-rendering="geometricPrecision" font-family="sans-serif" transform="matrix(1.1545,0,0,1.1545,-4001.3933,278.2273)" stroke-linecap="butt">
          <text x="4203.3047" xml:space="preserve" y="454.7139" stroke="none">Testsetup Single Cell</text>
        </g>
      </g>
    </g>
    <g id="y.node.40">
      <g fill="rgb(255,204,0)" text-rendering="geometricPrecision" shape-rendering="geometricPrecision" transform="matrix(1.1545,0,0,1.1545,-4001.3933,278.2273)" stroke="rgb(255,204,0)">
        <rect x="3533.0685" y="167.8352" width="111.8658" rx="4" ry="4" height="47.8253" stroke="none"/>
      </g>
      <g text-rendering="geometricPrecision" stroke-miterlimit="1.45" shape-rendering="geometricPrecision" transform="matrix(1.1545,0,0,1.1545,-4001.3933,278.2273)" stroke-linecap="butt">
        <rect x="3533.0685" y="167.8352" fill="none" width="111.8658" rx="4" ry="4" height="47.8253"/>
      </g>
      <g>
        <g text-rendering="geometricPrecision" stroke-miterlimit="1.45" shape-rendering="geometricPrecision" font-family="sans-serif" transform="matrix(1.1545,0,0,1.1545,-4001.3933,278.2273)" stroke-linecap="butt">
          <text x="3541.98" xml:space="preserve" y="196.4618" stroke="none">Configuring Tests</text>
        </g>
      </g>
    </g>
    <g id="y.node.41">
      <g fill="rgb(255,204,0)" text-rendering="geometricPrecision" shape-rendering="geometricPrecision" transform="matrix(1.1545,0,0,1.1545,-4001.3933,278.2273)" stroke="rgb(255,204,0)">
        <rect x="3533.0685" y="246.0873" width="111.8658" rx="4" ry="4" height="47.8253" stroke="none"/>
      </g>
      <g text-rendering="geometricPrecision" stroke-miterlimit="1.45" shape-rendering="geometricPrecision" transform="matrix(1.1545,0,0,1.1545,-4001.3933,278.2273)" stroke-linecap="butt">
        <rect x="3533.0685" y="246.0873" fill="none" width="111.8658" rx="4" ry="4" height="47.8253"/>
      </g>
      <g>
        <g text-rendering="geometricPrecision" stroke-miterlimit="1.45" shape-rendering="geometricPrecision" font-family="sans-serif" transform="matrix(1.1545,0,0,1.1545,-4001.3933,278.2273)" stroke-linecap="butt">
          <text x="3549.644" xml:space="preserve" y="274.7139" stroke="none">Plots and Data</text>
        </g>
      </g>
    </g>
    <g id="y.node.42">
      <g fill="rgb(255,204,0)" text-rendering="geometricPrecision" shape-rendering="geometricPrecision" transform="matrix(1.1545,0,0,1.1545,-4001.3933,278.2273)" stroke="rgb(255,204,0)">
        <rect x="3980" y="535" width="150" rx="4" ry="4" height="70" stroke="none"/>
      </g>
      <g text-rendering="geometricPrecision" stroke-miterlimit="1.45" shape-rendering="geometricPrecision" transform="matrix(1.1545,0,0,1.1545,-4001.3933,278.2273)" stroke-linecap="butt">
        <rect x="3980" y="535" fill="none" width="150" rx="4" ry="4" height="70"/>
      </g>
      <g>
        <g text-rendering="geometricPrecision" stroke-miterlimit="1.45" shape-rendering="geometricPrecision" font-family="sans-serif" transform="matrix(1.1545,0,0,1.1545,-4001.3933,278.2273)" stroke-linecap="butt">
          <text x="4016.9932" xml:space="preserve" y="574.7139" stroke="none">Flash Memory</text>
        </g>
      </g>
    </g>
    <g id="y.edge.28">
      <g text-rendering="geometricPrecision" stroke-miterlimit="1.45" shape-rendering="geometricPrecision" transform="matrix(1.1545,0,0,1.1545,-4001.3933,278.2273)" stroke-linecap="butt">
        <path fill="none" d="M3837.3701 -90 L3972.0037 -90"/>
        <path d="M3980.0037 -90 L3968.0037 -95 L3971.0037 -90 L3968.0037 -85 Z" stroke="none"/>
      </g>
    </g>
    <g id="y.edge.27">
      <g stroke-linecap="butt" transform="matrix(1.1545,0,0,1.1545,-4001.3933,278.2273)" fill="rgb(51,51,51)" text-rendering="geometricPrecision" shape-rendering="geometricPrecision" stroke-dasharray="12,4" stroke="rgb(51,51,51)" stroke-width="2" stroke-miterlimit="1.45">
        <path fill="none" d="M3806.7881 242.5 L3970.9902 242.5"/>
        <path d="M3797.7881 242.5 L3811.2881 248.125 L3807.9131 242.5 L3811.2881 236.875 Z" stroke="none"/>
        <path d="M3979.9902 242.5 L3966.4902 236.875 L3969.8652 242.5 L3966.4902 248.125 Z" stroke="none"/>
      </g>
      <g>
        <g text-rendering="geometricPrecision" stroke-miterlimit="1.45" shape-rendering="geometricPrecision" font-family="sans-serif" transform="matrix(1.1545,0,0,1.1545,-4001.3933,278.2273)" stroke-linecap="butt">
          <text x="3864.0056" xml:space="preserve" y="232.1579" stroke="none">USB</text>
        </g>
      </g>
    </g>
    <g id="y.edge.29">
      <g text-rendering="geometricPrecision" stroke-miterlimit="1.45" shape-rendering="geometricPrecision" transform="matrix(1.1545,0,0,1.1545,-4001.3933,278.2273)" stroke-linecap="butt">
        <path fill="none" d="M4054.7322 -54.9622 L4054.373 -7.9804"/>
        <path d="M4054.3118 0.0194 L4059.4036 -11.942 L4054.3806 -8.9803 L4049.4038 -12.0186 Z" stroke="none"/>
      </g>
    </g>
    <g id="y.edge.30">
      <g text-rendering="geometricPrecision" stroke-miterlimit="1.45" shape-rendering="geometricPrecision" transform="matrix(1.1545,0,0,1.1545,-4001.3933,278.2273)" stroke-linecap="butt">
        <path fill="none" d="M4129.9829 -90.6736 L4380 -90 L4380 30 L4338.8691 30"/>
        <path d="M4330.8691 30 L4342.8691 35 L4339.8691 30 L4342.8691 25 Z" stroke="none"/>
      </g>
    </g>
    <g id="y.edge.31">
      <g text-rendering="geometricPrecision" stroke-miterlimit="1.45" shape-rendering="geometricPrecision" transform="matrix(1.1545,0,0,1.1545,-4001.3933,278.2273)" stroke-linecap="butt">
        <path fill="none" d="M4189.1396 30 L4137.9722 30"/>
        <path d="M4129.9722 30 L4141.9722 35 L4138.9722 30 L4141.9722 25 Z" stroke="none"/>
      </g>
    </g>
    <g id="y.edge.39">
      <g text-rendering="geometricPrecision" stroke-miterlimit="1.45" shape-rendering="geometricPrecision" transform="matrix(1.1545,0,0,1.1545,-4001.3933,278.2273)" stroke-linecap="butt">
        <path fill="none" d="M4130.0215 -90 L4380 -90 L4380 90 L4338.8691 90"/>
        <path d="M4330.8691 90 L4342.8691 95 L4339.8691 90 L4342.8691 85 Z" stroke="none"/>
      </g>
    </g>
    <g id="y.edge.32">
      <g text-rendering="geometricPrecision" stroke-miterlimit="1.45" shape-rendering="geometricPrecision" transform="matrix(1.1545,0,0,1.1545,-4001.3933,278.2273)" stroke-linecap="butt">
        <path fill="none" d="M4189.1626 90 L4138.0122 90"/>
        <path d="M4130.0122 90 L4142.0122 95 L4139.0122 90 L4142.0122 85 Z" stroke="none"/>
      </g>
    </g>
    <g id="y.edge.40">
      <g text-rendering="geometricPrecision" stroke-miterlimit="1.45" shape-rendering="geometricPrecision" transform="matrix(1.1545,0,0,1.1545,-4001.3933,278.2273)" stroke-linecap="butt">
        <path fill="none" d="M4130.0215 -90 L4380 -90 L4380 150 L4338.8691 150"/>
        <path d="M4330.8691 150 L4342.8691 155 L4339.8691 150 L4342.8691 145 Z" stroke="none"/>
      </g>
    </g>
    <g id="y.edge.33">
      <g text-rendering="geometricPrecision" stroke-miterlimit="1.45" shape-rendering="geometricPrecision" transform="matrix(1.1545,0,0,1.1545,-4001.3933,278.2273)" stroke-linecap="butt">
        <path fill="none" d="M4189.147 150 L4137.9746 150"/>
        <path d="M4129.9746 150 L4141.9746 155 L4138.9746 150 L4141.9746 145 Z" stroke="none"/>
      </g>
    </g>
    <g id="y.edge.41">
      <g text-rendering="geometricPrecision" stroke-miterlimit="1.45" shape-rendering="geometricPrecision" transform="matrix(1.1545,0,0,1.1545,-4001.3933,278.2273)" stroke-linecap="butt">
        <path fill="none" d="M4130.0215 -90 L4380 -90 L4380 210 L4338.8691 210"/>
        <path d="M4330.8691 210 L4342.8691 215 L4339.8691 210 L4342.8691 205 Z" stroke="none"/>
      </g>
    </g>
    <g id="y.edge.34">
      <g text-rendering="geometricPrecision" stroke-miterlimit="1.45" shape-rendering="geometricPrecision" transform="matrix(1.1545,0,0,1.1545,-4001.3933,278.2273)" stroke-linecap="butt">
        <path fill="none" d="M4189.1631 210 L4137.9927 210"/>
        <path d="M4129.9927 210 L4141.9927 215 L4138.9927 210 L4141.9927 205 Z" stroke="none"/>
      </g>
    </g>
    <g id="y.edge.42">
      <g text-rendering="geometricPrecision" stroke-miterlimit="1.45" shape-rendering="geometricPrecision" transform="matrix(1.1545,0,0,1.1545,-4001.3933,278.2273)" stroke-linecap="butt">
        <path fill="none" d="M4130.0215 -90 L4380 -90 L4380 270 L4338.8691 270"/>
        <path d="M4330.8691 270 L4342.8691 275 L4339.8691 270 L4342.8691 265 Z" stroke="none"/>
      </g>
    </g>
    <g id="y.edge.35">
      <g text-rendering="geometricPrecision" stroke-miterlimit="1.45" shape-rendering="geometricPrecision" transform="matrix(1.1545,0,0,1.1545,-4001.3933,278.2273)" stroke-linecap="butt">
        <path fill="none" d="M4189.1904 270 L4137.9873 270"/>
        <path d="M4129.9873 270 L4141.9873 275 L4138.9873 270 L4141.9873 265 Z" stroke="none"/>
      </g>
    </g>
    <g id="y.edge.43">
      <g text-rendering="geometricPrecision" stroke-miterlimit="1.45" shape-rendering="geometricPrecision" transform="matrix(1.1545,0,0,1.1545,-4001.3933,278.2273)" stroke-linecap="butt">
        <path fill="none" d="M4130.0215 -90 L4380 -90 L4380 330 L4338.8691 330"/>
        <path d="M4330.8691 330 L4342.8691 335 L4339.8691 330 L4342.8691 325 Z" stroke="none"/>
      </g>
    </g>
    <g id="y.edge.36">
      <g text-rendering="geometricPrecision" stroke-miterlimit="1.45" shape-rendering="geometricPrecision" transform="matrix(1.1545,0,0,1.1545,-4001.3933,278.2273)" stroke-linecap="butt">
        <path fill="none" d="M4189.2021 330 L4138.001 330"/>
        <path d="M4130.001 330 L4142.001 335 L4139.001 330 L4142.001 325 Z" stroke="none"/>
      </g>
    </g>
    <g id="y.edge.44">
      <g text-rendering="geometricPrecision" stroke-miterlimit="1.45" shape-rendering="geometricPrecision" transform="matrix(1.1545,0,0,1.1545,-4001.3933,278.2273)" stroke-linecap="butt">
        <path fill="none" d="M4130.0215 -90 L4380 -90 L4380 390 L4338.8691 390"/>
        <path d="M4330.8691 390 L4342.8691 395 L4339.8691 390 L4342.8691 385 Z" stroke="none"/>
      </g>
    </g>
    <g id="y.edge.37">
      <g text-rendering="geometricPrecision" stroke-miterlimit="1.45" shape-rendering="geometricPrecision" transform="matrix(1.1545,0,0,1.1545,-4001.3933,278.2273)" stroke-linecap="butt">
        <path fill="none" d="M4189.1929 390 L4137.9956 390"/>
        <path d="M4129.9956 390 L4141.9956 395 L4138.9956 390 L4141.9956 385 Z" stroke="none"/>
      </g>
    </g>
    <g id="y.edge.45">
      <g text-rendering="geometricPrecision" stroke-miterlimit="1.45" shape-rendering="geometricPrecision" transform="matrix(1.1545,0,0,1.1545,-4001.3933,278.2273)" stroke-linecap="butt">
        <path fill="none" d="M4130.0215 -90 L4380 -90 L4380 450 L4338.8691 450"/>
        <path d="M4330.8691 450 L4342.8691 455 L4339.8691 450 L4342.8691 445 Z" stroke="none"/>
      </g>
    </g>
    <g id="y.edge.38">
      <g text-rendering="geometricPrecision" stroke-miterlimit="1.45" shape-rendering="geometricPrecision" transform="matrix(1.1545,0,0,1.1545,-4001.3933,278.2273)" stroke-linecap="butt">
        <path fill="none" d="M4189.1719 450 L4137.9731 450"/>
        <path d="M4129.9731 450 L4141.9731 455 L4138.9731 450 L4141.9731 445 Z" stroke="none"/>
      </g>
    </g>
    <g id="y.edge.46">
      <g text-rendering="geometricPrecision" stroke-miterlimit="1.45" shape-rendering="geometricPrecision" transform="matrix(1.1545,0,0,1.1545,-4001.3933,278.2273)" stroke-linecap="butt">
        <path fill="none" d="M3644.9146 191.7479 L3677.9207 191.7479"/>
        <path d="M3685.9207 191.7479 L3673.9207 186.7479 L3676.9207 191.7479 L3673.9207 196.7479 Z" stroke="none"/>
      </g>
    </g>
    <g id="y.edge.47">
      <g text-rendering="geometricPrecision" stroke-miterlimit="1.45" shape-rendering="geometricPrecision" transform="matrix(1.1545,0,0,1.1545,-4001.3933,278.2273)" stroke-linecap="butt">
        <path fill="none" d="M3685.9629 270 L3652.9153 270"/>
        <path d="M3644.9153 270 L3656.9153 275 L3653.9153 270 L3656.9153 265 Z" stroke="none"/>
      </g>
    </g>
    <g id="y.edge.48">
      <g text-rendering="geometricPrecision" stroke-miterlimit="1.45" shape-rendering="geometricPrecision" transform="matrix(1.1545,0,0,1.1545,-4001.3933,278.2273)" stroke-linecap="butt">
        <path fill="none" d="M4055 492.9667 L4055 526.9985"/>
        <path d="M4055 484.9667 L4050 496.9667 L4055 493.9667 L4060 496.9667 Z" stroke="none"/>
        <path d="M4055 534.9985 L4060 522.9985 L4055 525.9985 L4050 522.9985 Z" stroke="none"/>
      </g>
      <g/>
    </g>
    <g visibility="hidden" id="tooltip.y.edge.26" pointer-events="none">
      <g fill="rgb(255,255,225)" text-rendering="geometricPrecision" shape-rendering="geometricPrecision" font-family="'Segoe UI'" stroke="rgb(255,255,225)">
        <rect x="0" width="33" height="18" y="0" clip-path="url(#clipPath2)" stroke="none"/>
        <text fill="black" x="4" xml:space="preserve" y="14" clip-path="url(#clipPath2)" stroke="none">PWR</text>
      </g>
      <g font-family="'Segoe UI'" text-rendering="geometricPrecision" shape-rendering="geometricPrecision">
        <path d="M0 0 L33 0 L33 18 L0 18 L0 0 ZM1 1 L32 1 L32 17 L1 17 L1 1 Z" fill-rule="evenodd" clip-path="url(#clipPath2)" stroke="none"/>
      </g>
    </g>
    <g visibility="hidden" id="tooltip.y.edge.49" pointer-events="none">
      <g fill="rgb(255,255,225)" text-rendering="geometricPrecision" shape-rendering="geometricPrecision" font-family="'Segoe UI'" stroke="rgb(255,255,225)">
        <rect x="0" width="33" height="18" y="0" clip-path="url(#clipPath2)" stroke="none"/>
        <text fill="black" x="4" xml:space="preserve" y="14" clip-path="url(#clipPath2)" stroke="none">PWR</text>
      </g>
      <g font-family="'Segoe UI'" text-rendering="geometricPrecision" shape-rendering="geometricPrecision">
        <path d="M0 0 L33 0 L33 18 L0 18 L0 0 ZM1 1 L32 1 L32 17 L1 17 L1 1 Z" fill-rule="evenodd" clip-path="url(#clipPath2)" stroke="none"/>
      </g>
    </g>
  </g>
</svg>
