<?xml version="1.0" encoding="UTF-8"?><svg xmlns="http://www.w3.org/2000/svg" xmlns:xlink="http://www.w3.org/1999/xlink" fill-opacity="1" color-rendering="auto" color-interpolation="auto" text-rendering="auto" stroke="black" stroke-linecap="square" width="1176" stroke-miterlimit="10" shape-rendering="auto" stroke-opacity="1" fill="black" stroke-dasharray="none" font-weight="normal" stroke-width="1" height="496" font-family="'Dialog'" font-style="normal" stroke-linejoin="miter" font-size="12px" stroke-dashoffset="0" image-rendering="auto">
  <!--Generated by ySVG 2.6-->
  <defs id="genericDefs"/>
  <g>
    <defs id="defs1">
      <clipPath clipPathUnits="userSpaceOnUse" id="clipPath1">
        <path d="M0 0 L1176 0 L1176 496 L0 496 L0 0 Z"/>
      </clipPath>
      <clipPath clipPathUnits="userSpaceOnUse" id="clipPath2">
        <path d="M0 0 L0 18 L33 18 L33 0 Z"/>
      </clipPath>
      <script type="text/ecmascript"><![CDATA[      var SVGDocument = null;
      var SVGRoot = null;
      var TrueCoords = null;
      var lastElement = null;
      var initialized = null;
      var tipGroup;
      function Init(evt)
      {
         SVGDocument = evt.target.ownerDocument;
         SVGRoot = SVGDocument.documentElement;
         TrueCoords = SVGRoot.createSVGPoint();
         initialized = evt;
      };
      function GetTrueCoords(evt)
      {
         var newScale = SVGRoot.currentScale;
         var translation = SVGRoot.currentTranslate;
         TrueCoords.x = (evt.clientX - translation.x)/newScale;
         TrueCoords.y = (evt.clientY - translation.y)/newScale;
      };
      function HideTooltip( evt )
      {
         if(initialized == null) {
           Init(evt);
         }
         if(tipGroup != null) {
           tipGroup.setAttributeNS(null, 'visibility', 'hidden');
         }
      };
      function ShowTooltip( evt )
      {
         if(initialized == null) {
           Init(evt);
         }
         GetTrueCoords( evt );
         var tipScale = 1/SVGRoot.currentScale;
         var targetElement = evt.currentTarget;
         if ( lastElement != targetElement )
         {
            var targetId = targetElement.getAttributeNS(null, 'id');
            var tipId = 'tooltip.' + targetId;
            tipGroup = SVGDocument.getElementById(tipId);
            var xPos = TrueCoords.x + (10 * tipScale);
            var yPos = TrueCoords.y + (10 * tipScale);
            tipGroup.setAttributeNS(null, 'transform', 'translate(' + xPos + ',' + yPos + ') scale(' + tipScale + ')');
            tipGroup.setAttributeNS(null, 'visibility', 'visible');
         }
      };
]]></script>
    </defs>
    <g id="y.node.0">
      <g/>
    </g>
    <g id="y.node.1">
      <g/>
    </g>
    <g id="y.node.2">
      <g fill="rgb(153,204,255)" text-rendering="geometricPrecision" shape-rendering="geometricPrecision" transform="matrix(1.1545,0,0,1.1545,-3937.8974,989.3809)" stroke="rgb(153,204,255)">
        <rect x="3722.6" width="474.3405" height="346.65" y="-817.1142" stroke="none"/>
      </g>
      <g text-rendering="geometricPrecision" stroke-miterlimit="1.45" shape-rendering="geometricPrecision" transform="matrix(1.1545,0,0,1.1545,-3937.8974,989.3809)" stroke-linecap="butt">
        <rect fill="none" x="3722.6" width="474.3405" height="346.65" y="-817.1142"/>
      </g>
      <g>
        <g font-size="24px" stroke-linecap="butt" transform="matrix(1.1545,0,0,1.1545,-3937.8974,989.3809)" text-rendering="geometricPrecision" font-family="sans-serif" shape-rendering="geometricPrecision" stroke-miterlimit="1.45">
          <text x="3839.8503" xml:space="preserve" y="-784.3697" stroke="none">Testsetup Single Cell</text>
        </g>
      </g>
    </g>
    <g id="y.node.43">
      <g fill="rgb(255,204,0)" text-rendering="geometricPrecision" shape-rendering="geometricPrecision" transform="matrix(1.1545,0,0,1.1545,-3937.8974,989.3809)" stroke="rgb(255,204,0)">
        <path d="M3768.4941 -706.9468 L3783.4941 -721.9468 L3798.4941 -706.9468 L3783.4941 -691.9467 Z" stroke="none" fill-rule="evenodd"/>
      </g>
      <g text-rendering="geometricPrecision" stroke-miterlimit="1.45" shape-rendering="geometricPrecision" transform="matrix(1.1545,0,0,1.1545,-3937.8974,989.3809)" stroke-linecap="butt">
        <path fill="none" d="M3768.4941 -706.9468 L3783.4941 -721.9468 L3798.4941 -706.9468 L3783.4941 -691.9467 Z" fill-rule="evenodd"/>
      </g>
      <g>
        <g text-rendering="geometricPrecision" stroke-miterlimit="1.45" shape-rendering="geometricPrecision" font-family="sans-serif" transform="matrix(1.1545,0,0,1.1545,-3937.8974,989.3809)" stroke-linecap="butt">
          <text x="3804.4905" xml:space="preserve" y="-702.2328" stroke="none">Transistor</text>
        </g>
      </g>
    </g>
    <g id="y.node.44">
      <g fill="rgb(255,204,0)" text-rendering="geometricPrecision" shape-rendering="geometricPrecision" transform="matrix(1.1545,0,0,1.1545,-3937.8974,989.3809)" stroke="rgb(255,204,0)">
        <path d="M3768.4941 -580.6318 L3783.4941 -595.6318 L3798.4941 -580.6318 L3783.4941 -565.6318 Z" stroke="none" fill-rule="evenodd"/>
      </g>
      <g text-rendering="geometricPrecision" stroke-miterlimit="1.45" shape-rendering="geometricPrecision" transform="matrix(1.1545,0,0,1.1545,-3937.8974,989.3809)" stroke-linecap="butt">
        <path fill="none" d="M3768.4941 -580.6318 L3783.4941 -595.6318 L3798.4941 -580.6318 L3783.4941 -565.6318 Z" fill-rule="evenodd"/>
      </g>
      <g>
        <g text-rendering="geometricPrecision" stroke-miterlimit="1.45" shape-rendering="geometricPrecision" font-family="sans-serif" transform="matrix(1.1545,0,0,1.1545,-3937.8974,989.3809)" stroke-linecap="butt">
          <text x="3804.4905" xml:space="preserve" y="-575.9178" stroke="none">Transistor</text>
        </g>
      </g>
    </g>
    <g id="y.node.45">
      <g fill="rgb(255,204,0)" text-rendering="geometricPrecision" shape-rendering="geometricPrecision" transform="matrix(1.1545,0,0,1.1545,-3937.8974,989.3809)" stroke="rgb(255,204,0)">
        <rect x="3748.0105" y="-521.5261" width="70.96" rx="4" ry="4" height="30" stroke="none"/>
      </g>
      <g text-rendering="geometricPrecision" stroke-miterlimit="1.45" shape-rendering="geometricPrecision" transform="matrix(1.1545,0,0,1.1545,-3937.8974,989.3809)" stroke-linecap="butt">
        <rect x="3748.0105" y="-521.5261" fill="none" width="70.96" rx="4" ry="4" height="30"/>
      </g>
      <g>
        <g text-rendering="geometricPrecision" stroke-miterlimit="1.45" shape-rendering="geometricPrecision" font-family="sans-serif" transform="matrix(1.1545,0,0,1.1545,-3937.8974,989.3809)" stroke-linecap="butt">
          <text x="3756.8069" xml:space="preserve" y="-501.8123" stroke="none">Test Load</text>
        </g>
      </g>
    </g>
    <g id="y.node.46">
      <g fill="rgb(255,204,0)" text-rendering="geometricPrecision" shape-rendering="geometricPrecision" transform="matrix(1.1545,0,0,1.1545,-3937.8974,989.3809)" stroke="rgb(255,204,0)">
        <path d="M4012.5486 -650.9897 L4145.5322 -650.9897 L4160.3086 -639.8299 L4145.5322 -628.6699 L4012.5486 -628.6699 L4027.3245 -639.8299 Z" stroke="none" fill-rule="evenodd"/>
      </g>
      <g text-rendering="geometricPrecision" stroke-miterlimit="1.45" shape-rendering="geometricPrecision" transform="matrix(1.1545,0,0,1.1545,-3937.8974,989.3809)" stroke-linecap="butt">
        <path fill="none" d="M4012.5486 -650.9897 L4145.5322 -650.9897 L4160.3086 -639.8299 L4145.5322 -628.6699 L4012.5486 -628.6699 L4027.3245 -639.8299 Z" fill-rule="evenodd"/>
      </g>
      <g>
        <g text-rendering="geometricPrecision" stroke-miterlimit="1.45" shape-rendering="geometricPrecision" font-family="sans-serif" transform="matrix(1.1545,0,0,1.1545,-3937.8974,989.3809)" stroke-linecap="butt">
          <text x="4045.3965" xml:space="preserve" y="-635.116" stroke="none">Voltage Sensor</text>
        </g>
      </g>
    </g>
    <g id="y.node.47">
      <g fill="rgb(255,204,0)" text-rendering="geometricPrecision" shape-rendering="geometricPrecision" transform="matrix(1.1545,0,0,1.1545,-3937.8974,989.3809)" stroke="rgb(255,204,0)">
        <path d="M4012.5486 -691.8577 L4145.5322 -691.8577 L4160.3086 -680.6977 L4145.5322 -669.5375 L4012.5486 -669.5375 L4027.3245 -680.6977 Z" stroke="none" fill-rule="evenodd"/>
      </g>
      <g text-rendering="geometricPrecision" stroke-miterlimit="1.45" shape-rendering="geometricPrecision" transform="matrix(1.1545,0,0,1.1545,-3937.8974,989.3809)" stroke-linecap="butt">
        <path fill="none" d="M4012.5486 -691.8577 L4145.5322 -691.8577 L4160.3086 -680.6977 L4145.5322 -669.5375 L4012.5486 -669.5375 L4027.3245 -680.6977 Z" fill-rule="evenodd"/>
      </g>
      <g>
        <g text-rendering="geometricPrecision" stroke-miterlimit="1.45" shape-rendering="geometricPrecision" font-family="sans-serif" transform="matrix(1.1545,0,0,1.1545,-3937.8974,989.3809)" stroke-linecap="butt">
          <text x="4045.7393" xml:space="preserve" y="-675.9838" stroke="none">Current Sensor</text>
        </g>
      </g>
    </g>
    <g id="y.node.48">
      <g fill="silver" text-rendering="geometricPrecision" shape-rendering="geometricPrecision" transform="matrix(1.1545,0,0,1.1545,-3937.8974,989.3809)" stroke="silver">
        <rect x="3947.8679" y="-709.4058" width="31.2452" rx="4" ry="4" height="17.5482" stroke="none"/>
      </g>
      <g text-rendering="geometricPrecision" stroke-miterlimit="1.45" shape-rendering="geometricPrecision" transform="matrix(1.1545,0,0,1.1545,-3937.8974,989.3809)" stroke-linecap="butt">
        <rect x="3947.8679" y="-709.4058" fill="none" width="31.2452" rx="4" ry="4" height="17.5482"/>
      </g>
      <g/>
    </g>
    <g id="y.node.49">
      <g fill="rgb(51,102,255)" text-rendering="geometricPrecision" shape-rendering="geometricPrecision" transform="matrix(1.1545,0,0,1.1545,-3937.8974,989.3809)" stroke="rgb(51,102,255)">
        <rect x="3937.8737" y="-700.705" width="51.2337" rx="4" ry="4" height="121.7504" stroke="none"/>
      </g>
      <g text-rendering="geometricPrecision" stroke-miterlimit="1.45" shape-rendering="geometricPrecision" transform="matrix(1.1545,0,0,1.1545,-3937.8974,989.3809)" stroke-linecap="butt">
        <rect x="3937.8737" y="-700.705" fill="none" width="51.2337" rx="4" ry="4" height="121.7504"/>
      </g>
      <g>
        <g stroke-linecap="butt" transform="matrix(-0,-1.1545,1.1545,-0,627.0388,292.6822)" fill="white" text-rendering="geometricPrecision" font-family="sans-serif" shape-rendering="geometricPrecision" stroke="white" stroke-miterlimit="1.45">
          <text x="2" xml:space="preserve" y="14.0645" stroke="none">LiFePo4 Cell</text>
        </g>
      </g>
    </g>
    <g id="y.node.50">
      <g fill="rgb(255,204,0)" text-rendering="geometricPrecision" shape-rendering="geometricPrecision" transform="matrix(1.1545,0,0,1.1545,-3937.8974,989.3809)" stroke="rgb(255,204,0)">
        <path d="M4012.55 -610.122 L4145.5337 -610.122 L4160.3101 -598.962 L4145.5337 -587.8021 L4012.55 -587.8021 L4027.3259 -598.962 Z" stroke="none" fill-rule="evenodd"/>
      </g>
      <g text-rendering="geometricPrecision" stroke-miterlimit="1.45" shape-rendering="geometricPrecision" transform="matrix(1.1545,0,0,1.1545,-3937.8974,989.3809)" stroke-linecap="butt">
        <path fill="none" d="M4012.55 -610.122 L4145.5337 -610.122 L4160.3101 -598.962 L4145.5337 -587.8021 L4012.55 -587.8021 L4027.3259 -598.962 Z" fill-rule="evenodd"/>
      </g>
      <g>
        <g text-rendering="geometricPrecision" stroke-miterlimit="1.45" shape-rendering="geometricPrecision" font-family="sans-serif" transform="matrix(1.1545,0,0,1.1545,-3937.8974,989.3809)" stroke-linecap="butt">
          <text x="4031.4001" xml:space="preserve" y="-594.2481" stroke="none">Temperature Sensor</text>
        </g>
      </g>
    </g>
    <g onmouseout="HideTooltip(evt)" id="y.edge.49" onmousemove="ShowTooltip(evt)">
      <g text-rendering="geometricPrecision" stroke-miterlimit="1.45" shape-rendering="geometricPrecision" transform="matrix(1.1545,0,0,1.1545,-3937.8974,989.3809)" stroke-linecap="butt">
        <path fill="none" d="M3722.8167 -756.9982 L3783.4905 -755.9185 L3783.4905 -729.9156"/>
        <path d="M3783.4905 -721.9156 L3788.4905 -733.9156 L3783.4905 -730.9156 L3778.4905 -733.9156 Z" stroke="none"/>
      </g>
      <g>
        <g text-rendering="geometricPrecision" stroke-miterlimit="1.45" shape-rendering="geometricPrecision" font-family="sans-serif" transform="matrix(1.1545,0,0,1.1545,-3937.8974,989.3809)" stroke-linecap="butt">
          <text x="3740.4045" xml:space="preserve" y="-763.3614" stroke="none">PWR</text>
        </g>
      </g>
    </g>
    <g id="y.edge.54">
      <g text-rendering="geometricPrecision" stroke-miterlimit="1.45" shape-rendering="geometricPrecision" transform="matrix(1.1545,0,0,1.1545,-3937.8974,989.3809)" stroke-linecap="butt">
        <path fill="none" d="M3783.4905 -691.9283 L3783.4905 -603.6035"/>
        <path d="M3783.4905 -595.6035 L3788.4905 -607.6035 L3783.4905 -604.6035 L3778.4905 -607.6035 Z" stroke="none"/>
      </g>
    </g>
    <g id="y.edge.55">
      <g text-rendering="geometricPrecision" stroke-miterlimit="1.45" shape-rendering="geometricPrecision" transform="matrix(1.1545,0,0,1.1545,-3937.8974,989.3809)" stroke-linecap="butt">
        <path fill="none" d="M3783.4905 -565.6152 L3783.4905 -529.5004"/>
        <path d="M3783.4905 -521.5004 L3788.4905 -533.5004 L3783.4905 -530.5004 L3778.4905 -533.5004 Z" stroke="none"/>
      </g>
    </g>
    <g id="y.edge.57">
      <g text-rendering="geometricPrecision" stroke-miterlimit="1.45" shape-rendering="geometricPrecision" transform="matrix(1.1545,0,0,1.1545,-3937.8974,989.3809)" stroke-linecap="butt">
        <path fill="none" d="M4159.7026 -640.303 L4188.9409 -640.4918"/>
        <path d="M4196.9409 -640.5435 L4184.9087 -645.4659 L4187.9409 -640.4854 L4184.9736 -635.4661 Z" stroke="none"/>
      </g>
    </g>
    <g id="y.edge.56">
      <g text-rendering="geometricPrecision" stroke-miterlimit="1.45" shape-rendering="geometricPrecision" transform="matrix(1.1545,0,0,1.1545,-3937.8974,989.3809)" stroke-linecap="butt">
        <path fill="none" d="M4160.3115 -680.6976 L4188.9478 -680.6976"/>
        <path d="M4196.9478 -680.6976 L4184.9478 -685.6976 L4187.9478 -680.6976 L4184.9478 -675.6976 Z" stroke="none"/>
      </g>
    </g>
    <g id="y.edge.53">
      <g text-rendering="geometricPrecision" stroke-miterlimit="1.45" shape-rendering="geometricPrecision" transform="matrix(1.1545,0,0,1.1545,-3937.8974,989.3809)" stroke-linecap="butt">
        <path fill="none" d="M3783.4905 -691.9546 L3783.4905 -640.6317 L3929.8706 -639.9796"/>
        <path d="M3937.8706 -639.944 L3925.8931 -644.9974 L3928.8706 -639.9841 L3925.8484 -634.9975 Z" stroke="none"/>
      </g>
    </g>
    <g id="y.edge.51">
      <g text-rendering="geometricPrecision" stroke-miterlimit="1.45" shape-rendering="geometricPrecision" transform="matrix(1.1545,0,0,1.1545,-3937.8974,989.3809)" stroke-linecap="butt">
        <path fill="none" d="M3989.0916 -639.8298 L4027.3496 -639.8298"/>
      </g>
    </g>
    <g id="y.edge.52">
      <g text-rendering="geometricPrecision" stroke-miterlimit="1.45" shape-rendering="geometricPrecision" transform="matrix(1.1545,0,0,1.1545,-3937.8974,989.3809)" stroke-linecap="butt">
        <path fill="none" d="M3989.1169 -680.6976 L4027.365 -680.6976"/>
      </g>
    </g>
    <g id="y.edge.50">
      <g text-rendering="geometricPrecision" stroke-miterlimit="1.45" shape-rendering="geometricPrecision" transform="matrix(1.1545,0,0,1.1545,-3937.8974,989.3809)" stroke-linecap="butt">
        <path fill="none" d="M3989.0889 -598.962 L4027.3486 -598.962"/>
      </g>
    </g>
    <g id="y.edge.58">
      <g text-rendering="geometricPrecision" stroke-miterlimit="1.45" shape-rendering="geometricPrecision" transform="matrix(1.1545,0,0,1.1545,-3937.8974,989.3809)" stroke-linecap="butt">
        <path fill="none" d="M4160.3364 -598.962 L4188.9209 -598.962"/>
        <path d="M4196.9209 -598.962 L4184.9209 -603.962 L4187.9209 -598.962 L4184.9209 -593.962 Z" stroke="none"/>
      </g>
    </g>
    <g visibility="hidden" id="tooltip.y.edge.26" pointer-events="none">
      <g fill="rgb(255,255,225)" text-rendering="geometricPrecision" shape-rendering="geometricPrecision" font-family="'Segoe UI'" stroke="rgb(255,255,225)">
        <rect x="0" width="33" height="18" y="0" clip-path="url(#clipPath2)" stroke="none"/>
        <text fill="black" x="4" xml:space="preserve" y="14" clip-path="url(#clipPath2)" stroke="none">PWR</text>
      </g>
      <g font-family="'Segoe UI'" text-rendering="geometricPrecision" shape-rendering="geometricPrecision">
        <path d="M0 0 L33 0 L33 18 L0 18 L0 0 ZM1 1 L32 1 L32 17 L1 17 L1 1 Z" fill-rule="evenodd" clip-path="url(#clipPath2)" stroke="none"/>
      </g>
    </g>
    <g visibility="hidden" id="tooltip.y.edge.49" pointer-events="none">
      <g fill="rgb(255,255,225)" text-rendering="geometricPrecision" shape-rendering="geometricPrecision" font-family="'Segoe UI'" stroke="rgb(255,255,225)">
        <rect x="0" width="33" height="18" y="0" clip-path="url(#clipPath2)" stroke="none"/>
        <text fill="black" x="4" xml:space="preserve" y="14" clip-path="url(#clipPath2)" stroke="none">PWR</text>
      </g>
      <g font-family="'Segoe UI'" text-rendering="geometricPrecision" shape-rendering="geometricPrecision">
        <path d="M0 0 L33 0 L33 18 L0 18 L0 0 ZM1 1 L32 1 L32 17 L1 17 L1 1 Z" fill-rule="evenodd" clip-path="url(#clipPath2)" stroke="none"/>
      </g>
    </g>
  </g>
</svg>
